<?xml version="1.0" encoding="UTF-8"?><svg id="d" xmlns="http://www.w3.org/2000/svg" xmlns:xlink="http://www.w3.org/1999/xlink" viewBox="0 0 1130.64 221.89"><defs><style>.i{fill:url(#h);}.j{fill:url(#g);}.k{fill:url(#f);}.l{fill:url(#e);}.m{fill:#fae5db;font-family:Helvetica-Bold, Helvetica;font-size:60.83px;font-weight:700;}.n{fill:#f79b6c;}.o{letter-spacing:0em;}.p{stroke:#322765;stroke-width:6px;}.p,.q{fill:none;stroke-miterlimit:10;}.q{stroke:#88bee7;stroke-width:3px;}.r{fill:#88bee7;font-family:Lato-Semibold, Lato;font-size:20.08px;font-weight:600;}.s{letter-spacing:-.02em;}.t{letter-spacing:-.02em;}.u{letter-spacing:0em;}.v{letter-spacing:-.01em;}.w{letter-spacing:0em;}.x{letter-spacing:0em;}.y{letter-spacing:0em;}.z{letter-spacing:0em;}.aa{letter-spacing:0em;}</style><linearGradient id="e" x1="565.19" y1="211.63" x2="565.19" y2="23.97" gradientUnits="userSpaceOnUse"><stop offset="0" stop-color="#372165"/><stop offset=".35" stop-color="#4a317d"/><stop offset=".74" stop-color="#5a3e93"/><stop offset="1" stop-color="#61449b"/></linearGradient><linearGradient id="f" x1="430.62" y1="44.27" x2="374.84" y2="104.09" gradientUnits="userSpaceOnUse"><stop offset="0" stop-color="#f89c6b"/><stop offset=".9" stop-color="#ed777a"/></linearGradient><linearGradient id="g" x1="374.22" y1="108.44" x2="433.14" y2="81.58" gradientUnits="userSpaceOnUse"><stop offset="0" stop-color="#f89c6b"/><stop offset=".9" stop-color="#ed777a"/></linearGradient><linearGradient id="h" x1="431.09" y1="84.23" x2="370.01" y2="155.69" gradientUnits="userSpaceOnUse"><stop offset="0" stop-color="#f89c6b"/><stop offset=".12" stop-color="#f38c71"/><stop offset=".27" stop-color="#ef8076"/><stop offset=".48" stop-color="#ed7879"/><stop offset="1" stop-color="#ed777a"/></linearGradient></defs><rect class="l" x=".37" width="1129.63" height="222.34" rx="20.34" ry="20.34"/><rect class="q" x="327.82" y="44.21" width="125.7" height="125.7" rx="6.48" ry="6.48"/><line class="q" x1="327.82" y1="138.48" x2="453.52" y2="138.48"/><line class="q" x1="327.82" y1="107.06" x2="453.52" y2="107.06"/><line class="q" x1="327.82" y1="75.63" x2="453.52" y2="75.63"/><line class="q" x1="422.09" y1="44.21" x2="422.09" y2="169.9"/><line class="q" x1="390.67" y1="44.21" x2="390.67" y2="169.9"/><line class="q" x1="359.25" y1="44.21" x2="359.25" y2="169.9"/><text class="m" transform="translate(507.6 98.74)"><tspan x="0" y="0">THUNDER</tspan></text><text class="r" transform="translate(516.52 133.24)"><tspan class="u" x="0" y="0">T</tspan><tspan x="11.89" y="0">ile-l</tspan><tspan class="v" x="44.74" y="0">e</tspan><tspan class="t" x="55.17" y="0">v</tspan><tspan x="65.36" y="0">el </tspan><tspan class="x" x="85.89" y="0">H</tspan><tspan x="101.15" y="0">is</tspan><tspan class="aa" x="114.89" y="0">t</tspan><tspan x="122.16" y="0">op</tspan><tspan class="z" x="144.96" y="0">a</tspan><tspan x="154.91" y="0">thol</tspan><tspan class="u" x="189.86" y="0">o</tspan><tspan x="201.25" y="0">g</tspan><tspan class="s" x="211.79" y="0">y</tspan><tspan x="221.78" y="0" xml:space="preserve"> ima</tspan><tspan class="w" x="258.52" y="0">g</tspan><tspan class="o" x="268.88" y="0">e</tspan><tspan x="15.23" y="24.1">UNDE</tspan><tspan class="y" x="72.34" y="24.1">R</tspan><tspan x="84.93" y="24.1">standing benchmark</tspan></text><polygon class="n" points="435.58 23.73 335.33 131.8 375.48 120.74 338.6 203.93 446 74.66 402.6 89.41 435.58 23.73"/><polygon class="k" points="435.58 23.73 378.19 106.46 403.15 88.95 435.58 23.73"/><polygon class="j" points="403.15 88.95 378.19 106.46 408.57 99.08 445.46 75.12 403.15 88.95"/><polygon class="i" points="445.46 75.12 408.57 99.08 338.6 203.93 445.46 75.12"/><path class="p" d="M433.88,24.82l-97.12,105.43c-.41.45.02,1.15.61.99l36.87-10.16c.49-.14.92.37.71.83l-36.14,80c-.29.64.57,1.18,1.02.64l104.83-126.26c.39-.47-.08-1.15-.66-.96l-39.46,13.15c-.51.17-.97-.36-.73-.84l31.07-62.14c.31-.63-.51-1.2-.99-.68Z"/></svg>