<?xml version="1.0" encoding="UTF-8"?><svg id="a" xmlns="http://www.w3.org/2000/svg" xmlns:xlink="http://www.w3.org/1999/xlink" viewBox="0 0 129 187"><defs><style>.h{fill:url(#d);}.i{fill:url(#c);}.j{fill:url(#b);}.k{fill:#f79b6c;}.l{stroke:#322765;stroke-width:6px;}.l,.m{fill:none;stroke-miterlimit:10;}.m{stroke:#88bee7;stroke-width:3px;}</style><linearGradient id="b" x1="104.31" y1="23.27" x2="48.53" y2="83.09" gradientUnits="userSpaceOnUse"><stop offset="0" stop-color="#f89c6b"/><stop offset=".9" stop-color="#ed777a"/></linearGradient><linearGradient id="c" x1="47.91" y1="87.44" x2="106.82" y2="60.58" gradientUnits="userSpaceOnUse"><stop offset="0" stop-color="#f89c6b"/><stop offset=".9" stop-color="#ed777a"/></linearGradient><linearGradient id="d" x1="104.78" y1="63.23" x2="43.7" y2="134.69" gradientUnits="userSpaceOnUse"><stop offset="0" stop-color="#f89c6b"/><stop offset=".12" stop-color="#f38c71"/><stop offset=".27" stop-color="#ef8076"/><stop offset=".48" stop-color="#ed7879"/><stop offset="1" stop-color="#ed777a"/></linearGradient></defs><rect class="m" x="1.51" y="23.21" width="125.7" height="125.7" rx="6.48" ry="6.48"/><line class="m" x1="1.51" y1="117.48" x2="127.2" y2="117.48"/><line class="m" x1="1.51" y1="86.06" x2="127.2" y2="86.06"/><line class="m" x1="1.51" y1="54.63" x2="127.2" y2="54.63"/><line class="m" x1="95.78" y1="23.21" x2="95.78" y2="148.9"/><line class="m" x1="64.36" y1="23.21" x2="64.36" y2="148.9"/><line class="m" x1="32.93" y1="23.21" x2="32.93" y2="148.9"/><polygon class="k" points="109.27 2.73 9.02 110.8 49.17 99.74 12.29 182.93 119.69 53.66 76.29 68.41 109.27 2.73"/><polygon class="j" points="109.27 2.73 51.88 85.46 76.83 67.95 109.27 2.73"/><polygon class="i" points="76.83 67.95 51.88 85.46 82.26 78.08 119.15 54.12 76.83 67.95"/><polygon class="h" points="119.15 54.12 82.26 78.08 12.29 182.93 119.15 54.12"/><path class="l" d="M107.57,3.82L10.45,109.25c-.41.45.02,1.15.61.99l36.87-10.16c.49-.14.92.37.71.83L12.49,180.91c-.29.64.57,1.18,1.02.64L118.34,55.29c.39-.47-.08-1.15-.66-.96l-39.46,13.15c-.51.17-.97-.36-.73-.84L108.56,4.5c.31-.63-.51-1.2-.99-.68Z"/></svg>